<mxfile host="65bd71144e">
    <diagram id="mbgXg7MLxgZCqN_WTLX3" name="Page-1">
        <mxGraphModel dx="1216" dy="1588" grid="1" gridSize="10" guides="1" tooltips="1" connect="1" arrows="1" fold="1" page="1" pageScale="1" pageWidth="850" pageHeight="1100" math="0" shadow="0">
            <root>
                <mxCell id="0"/>
                <mxCell id="1" parent="0"/>
                <mxCell id="67" style="edgeStyle=none;html=1;exitX=0;exitY=0.5;exitDx=0;exitDy=0;fontSize=18;snapToPoint=0;orthogonal=0;entryX=0.95;entryY=1;entryDx=0;entryDy=0;orthogonalLoop=0;flowAnimation=0;backgroundOutline=0;entryPerimeter=0;" parent="1" source="9" target="58" edge="1">
                    <mxGeometry relative="1" as="geometry">
                        <mxPoint x="110" y="-70" as="targetPoint"/>
                        <Array as="points">
                            <mxPoint x="-30" y="60"/>
                            <mxPoint x="-30"/>
                            <mxPoint x="114"/>
                        </Array>
                    </mxGeometry>
                </mxCell>
                <mxCell id="68" style="edgeStyle=none;html=1;exitX=0;exitY=0.5;exitDx=0;exitDy=0;fontSize=18;entryX=0.5;entryY=1;entryDx=0;entryDy=0;entryPerimeter=0;" parent="1" source="20" target="58" edge="1">
                    <mxGeometry relative="1" as="geometry">
                        <mxPoint x="60" y="-50" as="targetPoint"/>
                        <Array as="points">
                            <mxPoint x="-90" y="220"/>
                            <mxPoint x="-90" y="-50"/>
                            <mxPoint x="60" y="-50"/>
                        </Array>
                    </mxGeometry>
                </mxCell>
                <mxCell id="69" style="edgeStyle=none;html=1;exitX=0.5;exitY=1;exitDx=0;exitDy=0;fontSize=18;entryX=0.27;entryY=1;entryDx=0;entryDy=0;entryPerimeter=0;" parent="1" source="39" target="58" edge="1">
                    <mxGeometry relative="1" as="geometry">
                        <mxPoint x="10" y="379" as="sourcePoint"/>
                        <mxPoint x="-20" y="-110" as="targetPoint"/>
                        <Array as="points">
                            <mxPoint x="728" y="270"/>
                            <mxPoint x="-120" y="270"/>
                            <mxPoint x="-120" y="-70"/>
                            <mxPoint x="32" y="-70"/>
                        </Array>
                    </mxGeometry>
                </mxCell>
                <mxCell id="80" style="edgeStyle=none;html=1;exitX=0;exitY=0.5;exitDx=0;exitDy=0;entryX=0.05;entryY=1;entryDx=0;entryDy=0;fontSize=18;entryPerimeter=0;" parent="1" source="72" target="58" edge="1">
                    <mxGeometry relative="1" as="geometry">
                        <Array as="points">
                            <mxPoint x="-150" y="380"/>
                            <mxPoint x="-150" y="-90"/>
                            <mxPoint x="6" y="-90"/>
                        </Array>
                    </mxGeometry>
                </mxCell>
                <mxCell id="94" value="" style="group" parent="1" vertex="1" connectable="0">
                    <mxGeometry width="490" height="80" as="geometry"/>
                </mxCell>
                <mxCell id="9" value="&lt;u&gt;ID_no&lt;/u&gt;" style="rounded=0;whiteSpace=wrap;html=1;" parent="94" vertex="1">
                    <mxGeometry x="10" y="40" width="120" height="40" as="geometry"/>
                </mxCell>
                <mxCell id="10" value="PAINTING" style="text;strokeColor=none;fillColor=none;html=1;fontSize=18;fontStyle=1;verticalAlign=middle;align=left;" parent="94" vertex="1">
                    <mxGeometry x="10" width="100" height="40" as="geometry"/>
                </mxCell>
                <mxCell id="11" value="Paint_type" style="rounded=0;whiteSpace=wrap;html=1;" parent="94" vertex="1">
                    <mxGeometry x="130" y="40" width="120" height="40" as="geometry"/>
                </mxCell>
                <mxCell id="12" value="Drawn_on" style="rounded=0;whiteSpace=wrap;html=1;" parent="94" vertex="1">
                    <mxGeometry x="250" y="40" width="120" height="40" as="geometry"/>
                </mxCell>
                <mxCell id="13" value="Style" style="rounded=0;whiteSpace=wrap;html=1;" parent="94" vertex="1">
                    <mxGeometry x="370" y="40" width="120" height="40" as="geometry"/>
                </mxCell>
                <mxCell id="95" value="" style="group" parent="1" vertex="1" connectable="0">
                    <mxGeometry x="10" y="160" width="600" height="80" as="geometry"/>
                </mxCell>
                <mxCell id="20" value="&lt;u&gt;ID_no&lt;/u&gt;" style="rounded=0;whiteSpace=wrap;html=1;" parent="95" vertex="1">
                    <mxGeometry y="40" width="120" height="40" as="geometry"/>
                </mxCell>
                <mxCell id="21" value="SCULPTURE" style="text;strokeColor=none;fillColor=none;html=1;fontSize=18;fontStyle=1;verticalAlign=middle;align=center;" parent="95" vertex="1">
                    <mxGeometry width="110" height="40" as="geometry"/>
                </mxCell>
                <mxCell id="22" value="Material" style="rounded=0;whiteSpace=wrap;html=1;" parent="95" vertex="1">
                    <mxGeometry x="120" y="40" width="120" height="40" as="geometry"/>
                </mxCell>
                <mxCell id="23" value="Height" style="rounded=0;whiteSpace=wrap;html=1;" parent="95" vertex="1">
                    <mxGeometry x="240" y="40" width="120" height="40" as="geometry"/>
                </mxCell>
                <mxCell id="24" value="Weight" style="rounded=0;whiteSpace=wrap;html=1;" parent="95" vertex="1">
                    <mxGeometry x="360" y="40" width="120" height="40" as="geometry"/>
                </mxCell>
                <mxCell id="26" value="Style" style="rounded=0;whiteSpace=wrap;html=1;" parent="95" vertex="1">
                    <mxGeometry x="480" y="40" width="120" height="40" as="geometry"/>
                </mxCell>
                <mxCell id="108" style="edgeStyle=none;html=1;exitX=0.5;exitY=1;exitDx=0;exitDy=0;entryX=0.73;entryY=1;entryDx=0;entryDy=0;fontSize=18;entryPerimeter=0;" parent="1" source="29" target="58" edge="1">
                    <mxGeometry relative="1" as="geometry">
                        <Array as="points">
                            <mxPoint x="610" y="110"/>
                            <mxPoint x="-60" y="110"/>
                            <mxPoint x="-60" y="-20"/>
                            <mxPoint x="87" y="-20"/>
                        </Array>
                    </mxGeometry>
                </mxCell>
                <mxCell id="118" style="edgeStyle=none;html=1;exitX=0;exitY=0.5;exitDx=0;exitDy=0;entryX=0;entryY=0.9;entryDx=0;entryDy=0;fontSize=18;entryPerimeter=0;" parent="1" source="110" target="58" edge="1">
                    <mxGeometry relative="1" as="geometry">
                        <Array as="points">
                            <mxPoint x="-180" y="540"/>
                            <mxPoint x="-170" y="-124"/>
                        </Array>
                    </mxGeometry>
                </mxCell>
                <mxCell id="119" value="" style="group" parent="1" vertex="1" connectable="0">
                    <mxGeometry x="550" width="360" height="79.69" as="geometry"/>
                </mxCell>
                <mxCell id="29" value="&lt;u&gt;ID_no&lt;/u&gt;" style="rounded=0;whiteSpace=wrap;html=1;" parent="119" vertex="1">
                    <mxGeometry y="39.69" width="120" height="40" as="geometry"/>
                </mxCell>
                <mxCell id="30" value="OTHER" style="text;strokeColor=none;fillColor=none;html=1;fontSize=18;fontStyle=1;verticalAlign=middle;align=left;" parent="119" vertex="1">
                    <mxGeometry width="100" height="40" as="geometry"/>
                </mxCell>
                <mxCell id="31" value="Type" style="rounded=0;whiteSpace=wrap;html=1;" parent="119" vertex="1">
                    <mxGeometry x="120" y="39.69" width="120" height="40" as="geometry"/>
                </mxCell>
                <mxCell id="32" value="Style" style="rounded=0;whiteSpace=wrap;html=1;" parent="119" vertex="1">
                    <mxGeometry x="240" y="39.69" width="120" height="40" as="geometry"/>
                </mxCell>
                <mxCell id="120" value="" style="group" parent="1" vertex="1" connectable="0">
                    <mxGeometry x="668" y="160" width="600" height="80" as="geometry"/>
                </mxCell>
                <mxCell id="39" value="&lt;u&gt;ID_no&lt;/u&gt;" style="rounded=0;whiteSpace=wrap;html=1;" parent="120" vertex="1">
                    <mxGeometry y="40" width="120" height="40" as="geometry"/>
                </mxCell>
                <mxCell id="40" value="STATUE" style="text;strokeColor=none;fillColor=none;html=1;fontSize=18;fontStyle=1;verticalAlign=middle;align=left;" parent="120" vertex="1">
                    <mxGeometry width="100" height="40" as="geometry"/>
                </mxCell>
                <mxCell id="41" value="Material" style="rounded=0;whiteSpace=wrap;html=1;" parent="120" vertex="1">
                    <mxGeometry x="120" y="40" width="120" height="40" as="geometry"/>
                </mxCell>
                <mxCell id="42" value="Height" style="rounded=0;whiteSpace=wrap;html=1;" parent="120" vertex="1">
                    <mxGeometry x="240" y="40" width="120" height="40" as="geometry"/>
                </mxCell>
                <mxCell id="43" value="Weight" style="rounded=0;whiteSpace=wrap;html=1;" parent="120" vertex="1">
                    <mxGeometry x="360" y="40" width="120" height="40" as="geometry"/>
                </mxCell>
                <mxCell id="45" value="Style" style="rounded=0;whiteSpace=wrap;html=1;" parent="120" vertex="1">
                    <mxGeometry x="480" y="40" width="120" height="40" as="geometry"/>
                </mxCell>
                <mxCell id="146" value="" style="group" parent="1" vertex="1" connectable="0">
                    <mxGeometry x="10.019999999999987" y="640" width="600" height="80" as="geometry"/>
                </mxCell>
                <mxCell id="130" value="&lt;u&gt;ID_no&lt;/u&gt;" style="rounded=0;whiteSpace=wrap;html=1;" parent="146" vertex="1">
                    <mxGeometry y="40" width="120" height="40" as="geometry"/>
                </mxCell>
                <mxCell id="131" value="BORROWED" style="text;strokeColor=none;fillColor=none;html=1;fontSize=18;fontStyle=1;verticalAlign=middle;align=left;" parent="146" vertex="1">
                    <mxGeometry width="260" height="40" as="geometry"/>
                </mxCell>
                <mxCell id="132" value="Borrowed_from" style="rounded=0;whiteSpace=wrap;html=1;" parent="146" vertex="1">
                    <mxGeometry x="240" y="40" width="120" height="40" as="geometry"/>
                </mxCell>
                <mxCell id="133" value="Date_returned" style="rounded=0;whiteSpace=wrap;html=1;" parent="146" vertex="1">
                    <mxGeometry x="480" y="40" width="120" height="40" as="geometry"/>
                </mxCell>
                <mxCell id="134" value="Date_borrowed" style="rounded=0;whiteSpace=wrap;html=1;" parent="146" vertex="1">
                    <mxGeometry x="360" y="40" width="120" height="40" as="geometry"/>
                </mxCell>
                <mxCell id="145" value="&lt;u&gt;Name&lt;/u&gt;" style="rounded=0;whiteSpace=wrap;html=1;" parent="146" vertex="1">
                    <mxGeometry x="120" y="40" width="120" height="40" as="geometry"/>
                </mxCell>
                <mxCell id="149" style="edgeStyle=none;html=1;exitX=0.5;exitY=1;exitDx=0;exitDy=0;entryX=0.5;entryY=1;entryDx=0;entryDy=0;fontSize=18;" parent="1" source="138" target="145" edge="1">
                    <mxGeometry relative="1" as="geometry">
                        <Array as="points">
                            <mxPoint x="728" y="760"/>
                            <mxPoint x="190" y="760"/>
                        </Array>
                    </mxGeometry>
                </mxCell>
                <mxCell id="150" style="edgeStyle=none;html=1;exitX=0;exitY=0.5;exitDx=0;exitDy=0;fontSize=18;entryX=0;entryY=0.1;entryDx=0;entryDy=0;entryPerimeter=0;" parent="1" source="130" target="58" edge="1">
                    <mxGeometry relative="1" as="geometry">
                        <Array as="points">
                            <mxPoint x="-240" y="700"/>
                            <mxPoint x="-240" y="-156"/>
                        </Array>
                        <mxPoint x="-30" y="-160" as="targetPoint"/>
                    </mxGeometry>
                </mxCell>
                <mxCell id="158" style="edgeStyle=none;html=1;exitX=0.5;exitY=1;exitDx=0;exitDy=0;entryX=0;entryY=0.5;entryDx=0;entryDy=0;fontSize=18;entryPerimeter=0;" parent="1" source="123" target="58" edge="1">
                    <mxGeometry relative="1" as="geometry">
                        <Array as="points">
                            <mxPoint x="1090" y="600"/>
                            <mxPoint x="-210" y="600"/>
                            <mxPoint x="-210" y="-140"/>
                        </Array>
                    </mxGeometry>
                </mxCell>
                <mxCell id="161" value="" style="group" parent="1" vertex="1" connectable="0">
                    <mxGeometry x="668" y="640" width="840" height="80" as="geometry"/>
                </mxCell>
                <mxCell id="137" value="COLLECTIONS" style="text;strokeColor=none;fillColor=none;html=1;fontSize=18;fontStyle=1;verticalAlign=middle;align=left;" parent="161" vertex="1">
                    <mxGeometry width="260" height="40" as="geometry"/>
                </mxCell>
                <mxCell id="138" value="&lt;u&gt;Name&lt;/u&gt;" style="rounded=0;whiteSpace=wrap;html=1;" parent="161" vertex="1">
                    <mxGeometry y="40" width="120" height="40" as="geometry"/>
                </mxCell>
                <mxCell id="139" value="Description" style="rounded=0;whiteSpace=wrap;html=1;" parent="161" vertex="1">
                    <mxGeometry x="240" y="40" width="120" height="40" as="geometry"/>
                </mxCell>
                <mxCell id="140" value="Type" style="rounded=0;whiteSpace=wrap;html=1;" parent="161" vertex="1">
                    <mxGeometry x="120" y="40" width="120" height="40" as="geometry"/>
                </mxCell>
                <mxCell id="141" value="Contact_person" style="rounded=0;whiteSpace=wrap;html=1;" parent="161" vertex="1">
                    <mxGeometry x="360" y="40" width="120" height="40" as="geometry"/>
                </mxCell>
                <mxCell id="142" value="Phone" style="rounded=0;whiteSpace=wrap;html=1;" parent="161" vertex="1">
                    <mxGeometry x="480" y="40" width="120" height="40" as="geometry"/>
                </mxCell>
                <mxCell id="143" value="Address_no" style="rounded=0;whiteSpace=wrap;html=1;" parent="161" vertex="1">
                    <mxGeometry x="600" y="40" width="120" height="40" as="geometry"/>
                </mxCell>
                <mxCell id="160" value="Address_text" style="rounded=0;whiteSpace=wrap;html=1;" parent="161" vertex="1">
                    <mxGeometry x="720" y="40" width="120" height="40" as="geometry"/>
                </mxCell>
                <mxCell id="169" value="" style="group" parent="1" vertex="1" connectable="0">
                    <mxGeometry x="10.02" y="320" width="1560" height="80" as="geometry"/>
                </mxCell>
                <mxCell id="101" value="Month_birth" style="rounded=0;whiteSpace=wrap;html=1;" parent="169" vertex="1">
                    <mxGeometry x="480" y="40" width="120" height="40" as="geometry"/>
                </mxCell>
                <mxCell id="102" value="Origin_country" style="rounded=0;whiteSpace=wrap;html=1;" parent="169" vertex="1">
                    <mxGeometry x="1080" y="40" width="120" height="40" as="geometry"/>
                </mxCell>
                <mxCell id="72" value="&lt;u&gt;ID_no&lt;/u&gt;" style="rounded=0;whiteSpace=wrap;html=1;" parent="169" vertex="1">
                    <mxGeometry y="40" width="120" height="40" as="geometry"/>
                </mxCell>
                <mxCell id="73" value="ARTIST" style="text;strokeColor=none;fillColor=none;html=1;fontSize=18;fontStyle=1;verticalAlign=middle;align=left;" parent="169" vertex="1">
                    <mxGeometry width="100" height="40" as="geometry"/>
                </mxCell>
                <mxCell id="74" value="&lt;u&gt;FName&lt;/u&gt;" style="rounded=0;whiteSpace=wrap;html=1;" parent="169" vertex="1">
                    <mxGeometry x="120.00000000000001" y="40" width="120" height="40" as="geometry"/>
                </mxCell>
                <mxCell id="75" value="&lt;u&gt;LName&lt;/u&gt;" style="rounded=0;whiteSpace=wrap;html=1;" parent="169" vertex="1">
                    <mxGeometry x="240" y="40" width="120" height="40" as="geometry"/>
                </mxCell>
                <mxCell id="76" value="Day_birth" style="rounded=0;whiteSpace=wrap;html=1;" parent="169" vertex="1">
                    <mxGeometry x="360" y="40" width="120" height="40" as="geometry"/>
                </mxCell>
                <mxCell id="103" value="Epoch" style="rounded=0;whiteSpace=wrap;html=1;" parent="169" vertex="1">
                    <mxGeometry x="1200" y="40" width="120" height="40" as="geometry"/>
                </mxCell>
                <mxCell id="104" value="Main_style" style="rounded=0;whiteSpace=wrap;html=1;" parent="169" vertex="1">
                    <mxGeometry x="1320" y="40" width="120" height="40" as="geometry"/>
                </mxCell>
                <mxCell id="105" value="Description" style="rounded=0;whiteSpace=wrap;html=1;" parent="169" vertex="1">
                    <mxGeometry x="1440" y="40" width="120" height="40" as="geometry"/>
                </mxCell>
                <mxCell id="152" value="Day_death" style="rounded=0;whiteSpace=wrap;html=1;" parent="169" vertex="1">
                    <mxGeometry x="720" y="40" width="120" height="40" as="geometry"/>
                </mxCell>
                <mxCell id="153" value="Year_birth" style="rounded=0;whiteSpace=wrap;html=1;" parent="169" vertex="1">
                    <mxGeometry x="600" y="40" width="120" height="40" as="geometry"/>
                </mxCell>
                <mxCell id="154" value="Month_death" style="rounded=0;whiteSpace=wrap;html=1;" parent="169" vertex="1">
                    <mxGeometry x="840" y="40" width="120" height="40" as="geometry"/>
                </mxCell>
                <mxCell id="155" value="Year_death" style="rounded=0;whiteSpace=wrap;html=1;" parent="169" vertex="1">
                    <mxGeometry x="960" y="40" width="120" height="40" as="geometry"/>
                </mxCell>
                <mxCell id="170" value="" style="group" parent="1" vertex="1" connectable="0">
                    <mxGeometry x="10" y="480" width="960.39" height="80" as="geometry"/>
                </mxCell>
                <mxCell id="110" value="&lt;u&gt;ID_no&lt;/u&gt;" style="rounded=0;whiteSpace=wrap;html=1;" parent="170" vertex="1">
                    <mxGeometry y="40" width="120" height="40" as="geometry"/>
                </mxCell>
                <mxCell id="111" value="EXHIBITION" style="text;strokeColor=none;fillColor=none;html=1;fontSize=18;fontStyle=1;verticalAlign=middle;align=center;" parent="170" vertex="1">
                    <mxGeometry width="100" height="40" as="geometry"/>
                </mxCell>
                <mxCell id="112" value="&lt;u&gt;Name&lt;/u&gt;" style="rounded=0;whiteSpace=wrap;html=1;" parent="170" vertex="1">
                    <mxGeometry x="120" y="40" width="120" height="40" as="geometry"/>
                </mxCell>
                <mxCell id="116" value="Start_day" style="rounded=0;whiteSpace=wrap;html=1;" parent="170" vertex="1">
                    <mxGeometry x="240" y="40" width="120" height="40" as="geometry"/>
                </mxCell>
                <mxCell id="113" value="End_day" style="rounded=0;whiteSpace=wrap;html=1;" parent="170" vertex="1">
                    <mxGeometry x="600.02" y="40" width="120" height="40" as="geometry"/>
                </mxCell>
                <mxCell id="165" value="Start_month" style="rounded=0;whiteSpace=wrap;html=1;" parent="170" vertex="1">
                    <mxGeometry x="360.02" y="40" width="120" height="40" as="geometry"/>
                </mxCell>
                <mxCell id="166" value="Start_year" style="rounded=0;whiteSpace=wrap;html=1;" parent="170" vertex="1">
                    <mxGeometry x="480.02" y="40" width="120" height="40" as="geometry"/>
                </mxCell>
                <mxCell id="167" value="End_month" style="rounded=0;whiteSpace=wrap;html=1;" parent="170" vertex="1">
                    <mxGeometry x="720.39" y="40" width="120" height="40" as="geometry"/>
                </mxCell>
                <mxCell id="168" value="End_year" style="rounded=0;whiteSpace=wrap;html=1;" parent="170" vertex="1">
                    <mxGeometry x="840.39" y="40" width="120" height="40" as="geometry"/>
                </mxCell>
                <mxCell id="171" value="" style="group" parent="1" vertex="1" connectable="0">
                    <mxGeometry x="1030" y="480" width="720" height="80" as="geometry"/>
                </mxCell>
                <mxCell id="123" value="&lt;u&gt;ID_no&lt;/u&gt;" style="rounded=0;whiteSpace=wrap;html=1;container=0;" parent="171" vertex="1">
                    <mxGeometry y="40" width="120" height="40" as="geometry"/>
                </mxCell>
                <mxCell id="124" value="PERMANENT_COLLECTION" style="text;strokeColor=none;fillColor=none;html=1;fontSize=18;fontStyle=1;verticalAlign=middle;align=left;container=0;" parent="171" vertex="1">
                    <mxGeometry width="260" height="40" as="geometry"/>
                </mxCell>
                <mxCell id="125" value="Day_acquired" style="rounded=0;whiteSpace=wrap;html=1;container=0;" parent="171" vertex="1">
                    <mxGeometry x="120" y="40" width="120" height="40" as="geometry"/>
                </mxCell>
                <mxCell id="126" value="Cost" style="rounded=0;whiteSpace=wrap;html=1;container=0;" parent="171" vertex="1">
                    <mxGeometry x="600" y="40" width="120" height="40" as="geometry"/>
                </mxCell>
                <mxCell id="127" value="Status" style="rounded=0;whiteSpace=wrap;html=1;container=0;" parent="171" vertex="1">
                    <mxGeometry x="480" y="40" width="120" height="40" as="geometry"/>
                </mxCell>
                <mxCell id="162" value="Month_acquired" style="rounded=0;whiteSpace=wrap;html=1;container=0;" parent="171" vertex="1">
                    <mxGeometry x="240" y="40" width="120" height="40" as="geometry"/>
                </mxCell>
                <mxCell id="163" value="Year_acquired" style="rounded=0;whiteSpace=wrap;html=1;container=0;" parent="171" vertex="1">
                    <mxGeometry x="360" y="40" width="120" height="40" as="geometry"/>
                </mxCell>
                <mxCell id="58" value="&lt;u&gt;ID_no&lt;/u&gt;" style="rounded=0;whiteSpace=wrap;html=1;snapToPoint=0;points=[[0,0.1,0,0,0],[0,0.5,0,0,0],[0,0.9,0,0,0],[0.05,1,0,0,0],[0.25,0,0,0,0],[0.27,1,0,0,0],[0.5,0,0,0,0],[0.5,1,0,0,0],[0.73,1,0,0,0],[0.75,0,0,0,0],[0.95,1,0,0,0],[1,0,0,0,0],[1,0.25,0,0,0],[1,0.5,0,0,0],[1,0.75,0,0,0]];" parent="1" vertex="1">
                    <mxGeometry x="-0.36" y="-160" width="120" height="40" as="geometry"/>
                </mxCell>
                <mxCell id="59" value="ART_OBJECTS" style="text;strokeColor=none;fillColor=none;html=1;fontSize=18;fontStyle=1;verticalAlign=middle;align=left;" parent="1" vertex="1">
                    <mxGeometry x="0.019999999999999574" y="-200" width="130" height="40" as="geometry"/>
                </mxCell>
                <mxCell id="60" value="Title" style="rounded=0;whiteSpace=wrap;html=1;" parent="1" vertex="1">
                    <mxGeometry x="120" y="-160" width="120" height="40" as="geometry"/>
                </mxCell>
                <mxCell id="61" value="Description" style="rounded=0;whiteSpace=wrap;html=1;" parent="1" vertex="1">
                    <mxGeometry x="240" y="-160" width="120" height="40" as="geometry"/>
                </mxCell>
                <mxCell id="62" value="Year" style="rounded=0;whiteSpace=wrap;html=1;" parent="1" vertex="1">
                    <mxGeometry x="360" y="-160" width="120" height="40" as="geometry"/>
                </mxCell>
                <mxCell id="63" value="Origin_country" style="rounded=0;whiteSpace=wrap;html=1;" parent="1" vertex="1">
                    <mxGeometry x="600" y="-160" width="120" height="40" as="geometry"/>
                </mxCell>
                <mxCell id="64" value="Epoch" style="rounded=0;whiteSpace=wrap;html=1;" parent="1" vertex="1">
                    <mxGeometry x="480" y="-160" width="120" height="40" as="geometry"/>
                </mxCell>
            </root>
        </mxGraphModel>
    </diagram>
</mxfile>